<svg width="15" height="14" viewBox="0 0 15 14" fill="none" xmlns="http://www.w3.org/2000/svg">
<path d="M6.91666 2.33333H2.83333C2.52391 2.33333 2.22717 2.45624 2.00837 2.67504C1.78958 2.89383 1.66666 3.19058 1.66666 3.49999V11.6667C1.66666 11.9761 1.78958 12.2728 2.00837 12.4916C2.22717 12.7104 2.52391 12.8333 2.83333 12.8333H11C11.3094 12.8333 11.6062 12.7104 11.825 12.4916C12.0437 12.2728 12.1667 11.9761 12.1667 11.6667V7.58333" stroke="currentColor" stroke-linecap="round" stroke-linejoin="round"/>
<path d="M11.2917 1.45834C11.5237 1.22627 11.8385 1.0959 12.1667 1.0959C12.4949 1.0959 12.8096 1.22627 13.0417 1.45834C13.2737 1.6904 13.4041 2.00515 13.4041 2.33334C13.4041 2.66153 13.2737 2.97627 13.0417 3.20834L7.5 8.75001L5.16666 9.33334L5.75 7.00001L11.2917 1.45834Z" stroke="currentColor" stroke-linecap="round" stroke-linejoin="round"/>
</svg>
