<svg width="16" height="16" viewBox="0 0 16 16" fill="none" xmlns="http://www.w3.org/2000/svg">
<path d="M8.5 8.66666C8.86819 8.66666 9.16667 8.36818 9.16667 7.99999C9.16667 7.63181 8.86819 7.33333 8.5 7.33333C8.13181 7.33333 7.83334 7.63181 7.83334 7.99999C7.83334 8.36818 8.13181 8.66666 8.5 8.66666Z" stroke="currentColor" stroke-width="1.2" stroke-linecap="round" stroke-linejoin="round"/>
<path d="M13.1667 8.66666C13.5349 8.66666 13.8333 8.36818 13.8333 7.99999C13.8333 7.63181 13.5349 7.33333 13.1667 7.33333C12.7985 7.33333 12.5 7.63181 12.5 7.99999C12.5 8.36818 12.7985 8.66666 13.1667 8.66666Z" stroke="currentColor" stroke-width="1.2" stroke-linecap="round" stroke-linejoin="round"/>
<path d="M3.83333 8.66666C4.20152 8.66666 4.5 8.36818 4.5 7.99999C4.5 7.63181 4.20152 7.33333 3.83333 7.33333C3.46514 7.33333 3.16666 7.63181 3.16666 7.99999C3.16666 8.36818 3.46514 8.66666 3.83333 8.66666Z" stroke="currentColor" stroke-width="1.2" stroke-linecap="round" stroke-linejoin="round"/>
</svg>
