<svg width="20" height="20" viewBox="0 0 20 20" fill="none" xmlns="http://www.w3.org/2000/svg">
<path d="M7.68519 2.5H3.14815C2.79019 2.5 2.5 2.95601 2.5 3.51852V10.6481C2.5 11.2107 2.79019 11.6667 3.14815 11.6667H7.68519C8.04315 11.6667 8.33333 11.2107 8.33333 10.6481V3.51852C8.33333 2.95601 8.04315 2.5 7.68519 2.5Z" stroke="currentColor" stroke-width="1.6" stroke-linecap="round" stroke-linejoin="round"/>
<path d="M16.8518 2.5H12.3148C11.9568 2.5 11.6666 3.24619 11.6666 4.16667V15.8333C11.6666 16.7538 11.9568 17.5 12.3148 17.5H16.8518C17.2098 17.5 17.5 16.7538 17.5 15.8333V4.16667C17.5 3.24619 17.2098 2.5 16.8518 2.5Z" stroke="currentColor" stroke-width="1.6" stroke-linecap="round" stroke-linejoin="round"/>
</svg>
